<?xml version="1.0" encoding="UTF-8"?>
<svg xmlns="http://www.w3.org/2000/svg" xmlns:xlink="http://www.w3.org/1999/xlink" viewBox="0 0 1080 1080">
  <defs>
    <style>
      .cls-1 {
        fill: url(#_ÂÁ_Ï_ÌÌ_È_ËÂÌÚ_87-2);
      }

      .cls-1, .cls-2, .cls-3, .cls-4, .cls-5, .cls-6, .cls-7, .cls-8, .cls-9, .cls-10, .cls-11, .cls-12, .cls-13, .cls-14, .cls-15, .cls-16, .cls-17, .cls-18, .cls-19, .cls-20, .cls-21, .cls-22, .cls-23, .cls-24, .cls-25, .cls-26, .cls-27, .cls-28, .cls-29, .cls-30, .cls-31, .cls-32, .cls-33, .cls-34, .cls-35, .cls-36 {
        stroke-width: 0px;
      }

      .cls-1, .cls-2, .cls-3, .cls-4, .cls-5, .cls-6, .cls-11, .cls-13, .cls-14, .cls-15, .cls-16, .cls-17, .cls-18, .cls-19, .cls-20, .cls-21, .cls-22, .cls-23, .cls-24, .cls-25, .cls-26, .cls-27, .cls-28, .cls-29, .cls-30, .cls-31, .cls-32, .cls-33, .cls-34 {
        fill-rule: evenodd;
      }

      .cls-2 {
        fill: url(#_ÂÁ_Ï_ÌÌ_È_ËÂÌÚ_57-2);
      }

      .cls-3 {
        fill: url(#_ÂÁ_Ï_ÌÌ_È_ËÂÌÚ_27-2);
      }

      .cls-4 {
        fill: url(#_ÂÁ_Ï_ÌÌ_È_ËÂÌÚ_67-3);
      }

      .cls-5 {
        fill: url(#_ÂÁ_Ï_ÌÌ_È_ËÂÌÚ_67-2);
      }

      .cls-6 {
        fill: url(#_ÂÁ_Ï_ÌÌ_È_ËÂÌÚ_600);
      }

      .cls-6, .cls-7, .cls-8, .cls-9, .cls-10, .cls-12, .cls-15, .cls-35, .cls-36 {
        mix-blend-mode: screen;
      }

      .cls-7 {
        fill: url(#radial-gradient-2);
      }

      .cls-8 {
        fill: url(#radial-gradient-4);
      }

      .cls-9 {
        fill: url(#radial-gradient-3);
      }

      .cls-10 {
        fill: url(#radial-gradient-5);
      }

      .cls-11 {
        fill: url(#_ÂÁ_Ï_ÌÌ_È_ËÂÌÚ_9);
      }

      .cls-11, .cls-25, .cls-27, .cls-28, .cls-29, .cls-30, .cls-31, .cls-32, .cls-33, .cls-34 {
        mix-blend-mode: multiply;
      }

      .cls-11, .cls-25, .cls-27, .cls-28, .cls-29, .cls-30, .cls-33 {
        opacity: .4;
      }

      .cls-12 {
        fill: url(#_ÂÁ_Ï_ÌÌ_È_ËÂÌÚ_77);
      }

      .cls-13 {
        fill: url(#_ÂÁ_Ï_ÌÌ_È_ËÂÌÚ_833);
      }

      .cls-14 {
        fill: url(#_ÂÁ_Ï_ÌÌ_È_ËÂÌÚ_858);
      }

      .cls-15 {
        fill: url(#_ÂÁ_Ï_ÌÌ_È_ËÂÌÚ_77-2);
      }

      .cls-16 {
        fill: url(#_ÂÁ_Ï_ÌÌ_È_ËÂÌÚ_93);
      }

      .cls-17 {
        fill: url(#_ÂÁ_Ï_ÌÌ_È_ËÂÌÚ_67);
      }

      .cls-18 {
        fill: url(#_ÂÁ_Ï_ÌÌ_È_ËÂÌÚ_18);
      }

      .cls-19 {
        fill: url(#_ÂÁ_Ï_ÌÌ_È_ËÂÌÚ_87);
      }

      .cls-20 {
        fill: url(#_ÂÁ_Ï_ÌÌ_È_ËÂÌÚ_41);
      }

      .cls-21 {
        fill: url(#_ÂÁ_Ï_ÌÌ_È_ËÂÌÚ_27);
      }

      .cls-22 {
        fill: url(#_ÂÁ_Ï_ÌÌ_È_ËÂÌÚ_57);
      }

      .cls-23 {
        fill: url(#_ÂÁ_Ï_ÌÌ_È_ËÂÌÚ_37);
      }

      .cls-24 {
        fill: url(#_ÂÁ_Ï_ÌÌ_È_ËÂÌÚ_36);
      }

      .cls-25 {
        fill: url(#_ÂÁ_Ï_ÌÌ_È_ËÂÌÚ_559-2);
      }

      .cls-26 {
        fill: #0edbff;
      }

      .cls-27 {
        fill: url(#_ÂÁ_Ï_ÌÌ_È_ËÂÌÚ_9-3);
      }

      .cls-28 {
        fill: url(#_ÂÁ_Ï_ÌÌ_È_ËÂÌÚ_9-2);
      }

      .cls-29 {
        fill: url(#_ÂÁ_Ï_ÌÌ_È_ËÂÌÚ_9-5);
      }

      .cls-30 {
        fill: url(#_ÂÁ_Ï_ÌÌ_È_ËÂÌÚ_9-4);
      }

      .cls-31 {
        fill: url(#_ÂÁ_Ï_ÌÌ_È_ËÂÌÚ_111);
      }

      .cls-32 {
        fill: url(#_ÂÁ_Ï_ÌÌ_È_ËÂÌÚ_99);
      }

      .cls-37 {
        isolation: isolate;
      }

      .cls-33 {
        fill: url(#_ÂÁ_Ï_ÌÌ_È_ËÂÌÚ_559);
      }

      .cls-34 {
        fill: url(#_ÂÁ_Ï_ÌÌ_È_ËÂÌÚ_111-2);
      }

      .cls-35 {
        fill: url(#radial-gradient);
      }

      .cls-36 {
        fill: url(#_ÂÁ_Ï_ÌÌ_È_ËÂÌÚ_136);
      }
    </style>
    <radialGradient id="radial-gradient" cx="540" cy="540" fx="540" fy="540" r="460.01" gradientTransform="translate(540 -223.68) rotate(45)" gradientUnits="userSpaceOnUse">
      <stop offset="0" stop-color="#0092ff"/>
      <stop offset=".13" stop-color="#008ffb" stop-opacity=".98"/>
      <stop offset=".26" stop-color="#0088ef" stop-opacity=".94"/>
      <stop offset=".38" stop-color="#007dda" stop-opacity=".86"/>
      <stop offset=".51" stop-color="#006dbe" stop-opacity=".75"/>
      <stop offset=".63" stop-color="#00589a" stop-opacity=".61"/>
      <stop offset=".76" stop-color="#003f6e" stop-opacity=".43"/>
      <stop offset=".88" stop-color="#00213a" stop-opacity=".23"/>
      <stop offset="1" stop-color="#000" stop-opacity="0"/>
    </radialGradient>
    <radialGradient id="radial-gradient-2" cx="540" cy="540" fx="540" fy="540" r="452" gradientTransform="translate(540 -223.68) rotate(45)" gradientUnits="userSpaceOnUse">
      <stop offset="0" stop-color="#009bff"/>
      <stop offset="1" stop-color="#000" stop-opacity="0"/>
    </radialGradient>
    <radialGradient id="radial-gradient-3" r="540" gradientTransform="translate(540 -223.68) rotate(45)" xlink:href="#radial-gradient-2"/>
    <linearGradient id="_ÂÁ_Ï_ÌÌ_È_ËÂÌÚ_37" data-name="¡ÂÁ˚ÏˇÌÌ˚È „‡‰ËÂÌÚ 37" x1="281.13" y1="330.9" x2="281.13" y2="195.8" gradientUnits="userSpaceOnUse">
      <stop offset="0" stop-color="#9a00b3"/>
      <stop offset="1" stop-color="#7f72ff"/>
    </linearGradient>
    <linearGradient id="_ÂÁ_Ï_ÌÌ_È_ËÂÌÚ_67" data-name="¡ÂÁ˚ÏˇÌÌ˚È „‡‰ËÂÌÚ 67" x1="251.23" y1="337.75" x2="302" y2="182.77" gradientUnits="userSpaceOnUse">
      <stop offset="0" stop-color="#5b008b"/>
      <stop offset="1" stop-color="#8e00ff"/>
    </linearGradient>
    <radialGradient id="_ÂÁ_Ï_ÌÌ_È_ËÂÌÚ_858" data-name="¡ÂÁ˚ÏˇÌÌ˚È „‡‰ËÂÌÚ 858" cx="298.68" cy="357.74" fx="298.68" fy="357.74" r="626.64" gradientUnits="userSpaceOnUse">
      <stop offset="0" stop-color="#60dbff"/>
      <stop offset=".09" stop-color="#5fd5ff"/>
      <stop offset=".21" stop-color="#5ec4ff"/>
      <stop offset=".34" stop-color="#5ca8ff"/>
      <stop offset=".49" stop-color="#5a81ff"/>
      <stop offset=".64" stop-color="#5651ff"/>
      <stop offset=".68" stop-color="#5643ff"/>
      <stop offset=".74" stop-color="#553df8"/>
      <stop offset=".83" stop-color="#542ee4"/>
      <stop offset=".93" stop-color="#5315c5"/>
      <stop offset="1" stop-color="#5200ab"/>
    </radialGradient>
    <linearGradient id="_ÂÁ_Ï_ÌÌ_È_ËÂÌÚ_833" data-name="¡ÂÁ˚ÏˇÌÌ˚È „‡‰ËÂÌÚ 833" x1="150.17" y1="433.18" x2="711.34" y2="433.18" gradientUnits="userSpaceOnUse">
      <stop offset=".01" stop-color="#81e0ff"/>
      <stop offset=".32" stop-color="#82ddff"/>
      <stop offset=".55" stop-color="#85d3ff"/>
      <stop offset=".75" stop-color="#8bc3ff"/>
      <stop offset=".94" stop-color="#93adff"/>
      <stop offset="1" stop-color="#97a4ff"/>
    </linearGradient>
    <linearGradient id="_ÂÁ_Ï_ÌÌ_È_ËÂÌÚ_99" data-name="¡ÂÁ˚ÏˇÌÌ˚È „‡‰ËÂÌÚ 99" x1="717.06" y1="893.83" x2="717.06" y2="710.65" gradientUnits="userSpaceOnUse">
      <stop offset="0" stop-color="#b8c2ff"/>
      <stop offset="1" stop-color="#5b729c"/>
    </linearGradient>
    <radialGradient id="_ÂÁ_Ï_ÌÌ_È_ËÂÌÚ_600" data-name="¡ÂÁ˚ÏˇÌÌ˚È „‡‰ËÂÌÚ 600" cx="255.2" cy="274.68" fx="255.2" fy="274.68" r="513.47" gradientUnits="userSpaceOnUse">
      <stop offset="0" stop-color="#ffffd9"/>
      <stop offset="1" stop-color="#000"/>
    </radialGradient>
    <linearGradient id="_ÂÁ_Ï_ÌÌ_È_ËÂÌÚ_9" data-name="¡ÂÁ˚ÏˇÌÌ˚È „‡‰ËÂÌÚ 9" x1="153.73" y1="322.76" x2="644.34" y2="322.76" gradientUnits="userSpaceOnUse">
      <stop offset="0" stop-color="#b8c2ff"/>
      <stop offset="1" stop-color="#7d72b3"/>
    </linearGradient>
    <linearGradient id="_ÂÁ_Ï_ÌÌ_È_ËÂÌÚ_9-2" data-name="¡ÂÁ˚ÏˇÌÌ˚È „‡‰ËÂÌÚ 9" x1="233.35" y1="687.94" x2="930.39" y2="687.94" xlink:href="#_ÂÁ_Ï_ÌÌ_È_ËÂÌÚ_9"/>
    <linearGradient id="_ÂÁ_Ï_ÌÌ_È_ËÂÌÚ_9-3" data-name="¡ÂÁ˚ÏˇÌÌ˚È „‡‰ËÂÌÚ 9" x1="192.18" y1="543.77" x2="887.82" y2="543.77" xlink:href="#_ÂÁ_Ï_ÌÌ_È_ËÂÌÚ_9"/>
    <linearGradient id="_ÂÁ_Ï_ÌÌ_È_ËÂÌÚ_9-4" data-name="¡ÂÁ˚ÏˇÌÌ˚È „‡‰ËÂÌÚ 9" x1="150.19" y1="446.55" x2="833.96" y2="446.55" xlink:href="#_ÂÁ_Ï_ÌÌ_È_ËÂÌÚ_9"/>
    <linearGradient id="_ÂÁ_Ï_ÌÌ_È_ËÂÌÚ_559" data-name="¡ÂÁ˚ÏˇÌÌ˚È „‡‰ËÂÌÚ 559" x1="656.76" y1="390.19" x2="666.15" y2="390.19" gradientUnits="userSpaceOnUse">
      <stop offset="0" stop-color="#e8ddff"/>
      <stop offset="1" stop-color="#aa8ad8"/>
    </linearGradient>
    <linearGradient id="_ÂÁ_Ï_ÌÌ_È_ËÂÌÚ_559-2" data-name="¡ÂÁ˚ÏˇÌÌ˚È „‡‰ËÂÌÚ 559" x1="174.64" y1="563.64" x2="176.59" y2="563.64" xlink:href="#_ÂÁ_Ï_ÌÌ_È_ËÂÌÚ_559"/>
    <linearGradient id="_ÂÁ_Ï_ÌÌ_È_ËÂÌÚ_18" data-name="¡ÂÁ˚ÏˇÌÌ˚È „‡‰ËÂÌÚ 18" x1="615.06" y1="227.44" x2="865.43" y2="227.44" gradientUnits="userSpaceOnUse">
      <stop offset="0" stop-color="#7f72ff"/>
      <stop offset="1" stop-color="#9a00b3"/>
    </linearGradient>
    <linearGradient id="_ÂÁ_Ï_ÌÌ_È_ËÂÌÚ_57" data-name="¡ÂÁ˚ÏˇÌÌ˚È „‡‰ËÂÌÚ 57" x1="671.93" y1="828.47" x2="798.94" y2="440.74" gradientUnits="userSpaceOnUse">
      <stop offset="0" stop-color="#280077"/>
      <stop offset="1" stop-color="#812cff"/>
    </linearGradient>
    <linearGradient id="_ÂÁ_Ï_ÌÌ_È_ËÂÌÚ_27" data-name="¡ÂÁ˚ÏˇÌÌ˚È „‡‰ËÂÌÚ 27" x1="815.48" y1="779.28" x2="815.48" y2="390.1" gradientTransform="translate(175.92 -173.83) rotate(18.14)" gradientUnits="userSpaceOnUse">
      <stop offset="0" stop-color="#7a00b3"/>
      <stop offset="1" stop-color="#b136ff"/>
    </linearGradient>
    <linearGradient id="_ÂÁ_Ï_ÌÌ_È_ËÂÌÚ_87" data-name="¡ÂÁ˚ÏˇÌÌ˚È „‡‰ËÂÌÚ 87" x1="750.03" y1="714.48" x2="750.03" y2="446.59" gradientUnits="userSpaceOnUse">
      <stop offset="0" stop-color="#8e00b3"/>
      <stop offset="1" stop-color="#e05cff"/>
    </linearGradient>
    <linearGradient id="_ÂÁ_Ï_ÌÌ_È_ËÂÌÚ_111" data-name="¡ÂÁ˚ÏˇÌÌ˚È „‡‰ËÂÌÚ 111" x1="320.5" y1="869.55" x2="320.5" y2="712.26" gradientUnits="userSpaceOnUse">
      <stop offset="0" stop-color="#81a9ce"/>
      <stop offset="1" stop-color="#5b729c"/>
    </linearGradient>
    <linearGradient id="_ÂÁ_Ï_ÌÌ_È_ËÂÌÚ_57-2" data-name="¡ÂÁ˚ÏˇÌÌ˚È „‡‰ËÂÌÚ 57" x1="276.31" y1="824.37" x2="328.77" y2="664.21" xlink:href="#_ÂÁ_Ï_ÌÌ_È_ËÂÌÚ_57"/>
    <linearGradient id="_ÂÁ_Ï_ÌÌ_È_ËÂÌÚ_36" data-name="¡ÂÁ˚ÏˇÌÌ˚È „‡‰ËÂÌÚ 36" x1="597.08" y1="963.21" x2="597.08" y2="893.83" gradientUnits="userSpaceOnUse">
      <stop offset="0" stop-color="#7a00b3"/>
      <stop offset=".92" stop-color="#7006fc"/>
      <stop offset="1" stop-color="#7006f9"/>
    </linearGradient>
    <linearGradient id="_ÂÁ_Ï_ÌÌ_È_ËÂÌÚ_27-2" data-name="¡ÂÁ˚ÏˇÌÌ˚È „‡‰ËÂÌÚ 27" x1="279.45" y1="849.96" x2="279.45" y2="650.55" gradientTransform="matrix(1,0,0,1,0,0)" xlink:href="#_ÂÁ_Ï_ÌÌ_È_ËÂÌÚ_27"/>
    <linearGradient id="_ÂÁ_Ï_ÌÌ_È_ËÂÌÚ_87-2" data-name="¡ÂÁ˚ÏˇÌÌ˚È „‡‰ËÂÌÚ 87" x1="289.9" y1="849.88" x2="289.9" y2="650.55" xlink:href="#_ÂÁ_Ï_ÌÌ_È_ËÂÌÚ_87"/>
    <linearGradient id="_ÂÁ_Ï_ÌÌ_È_ËÂÌÚ_67-2" data-name="¡ÂÁ˚ÏˇÌÌ˚È „‡‰ËÂÌÚ 67" x1="577.62" y1="586.67" x2="610.99" y2="484.78" xlink:href="#_ÂÁ_Ï_ÌÌ_È_ËÂÌÚ_67"/>
    <linearGradient id="_ÂÁ_Ï_ÌÌ_È_ËÂÌÚ_41" data-name="¡ÂÁ˚ÏˇÌÌ˚È „‡‰ËÂÌÚ 41" x1="589.25" y1="579.31" x2="616.85" y2="495.04" gradientUnits="userSpaceOnUse">
      <stop offset="0" stop-color="#a400ca"/>
      <stop offset="1" stop-color="#b136ff"/>
    </linearGradient>
    <linearGradient id="_ÂÁ_Ï_ÌÌ_È_ËÂÌÚ_67-3" data-name="¡ÂÁ˚ÏˇÌÌ˚È „‡‰ËÂÌÚ 67" x1="727.64" y1="279.43" x2="767.48" y2="157.81" xlink:href="#_ÂÁ_Ï_ÌÌ_È_ËÂÌÚ_67"/>
    <radialGradient id="radial-gradient-4" cx="826.31" cy="720.29" fx="826.31" fy="720.29" r="73.84" gradientTransform="translate(340.78 -262.49) rotate(22.63)" gradientUnits="userSpaceOnUse">
      <stop offset="0" stop-color="#317aff"/>
      <stop offset=".1" stop-color="#2967d7" stop-opacity=".84"/>
      <stop offset=".29" stop-color="#1c4896" stop-opacity=".59"/>
      <stop offset=".47" stop-color="#122e60" stop-opacity=".38"/>
      <stop offset=".64" stop-color="#0a1a37" stop-opacity=".22"/>
      <stop offset=".78" stop-color="#040b18" stop-opacity=".1"/>
      <stop offset=".91" stop-color="#010306" stop-opacity=".03"/>
      <stop offset="1" stop-color="#000" stop-opacity="0"/>
    </radialGradient>
    <radialGradient id="_ÂÁ_Ï_ÌÌ_È_ËÂÌÚ_77" data-name="¡ÂÁ˚ÏˇÌÌ˚È „‡‰ËÂÌÚ 77" cx="727.47" cy="519.54" fx="727.47" fy="519.54" r="68.56" gradientUnits="userSpaceOnUse">
      <stop offset="0" stop-color="#317aff"/>
      <stop offset=".1" stop-color="#2967d7"/>
      <stop offset=".29" stop-color="#1c4896"/>
      <stop offset=".47" stop-color="#122e60"/>
      <stop offset=".64" stop-color="#0a1a37"/>
      <stop offset=".78" stop-color="#040b18"/>
      <stop offset=".91" stop-color="#010306"/>
      <stop offset="1" stop-color="#000"/>
    </radialGradient>
    <radialGradient id="_ÂÁ_Ï_ÌÌ_È_ËÂÌÚ_77-2" data-name="¡ÂÁ˚ÏˇÌÌ˚È „‡‰ËÂÌÚ 77" cx="591.03" cy="53.18" fx="591.03" fy="53.18" r="40.64" gradientTransform="translate(280.76 -184.51) rotate(35.99) scale(1 .66)" xlink:href="#_ÂÁ_Ï_ÌÌ_È_ËÂÌÚ_77"/>
    <radialGradient id="radial-gradient-5" cx="252.38" cy="741.91" fx="252.38" fy="741.91" r="73.84" gradientTransform="matrix(1,0,0,1,0,0)" xlink:href="#radial-gradient-4"/>
    <linearGradient id="_ÂÁ_Ï_ÌÌ_È_ËÂÌÚ_93" data-name="¡ÂÁ˚ÏˇÌÌ˚È „‡‰ËÂÌÚ 93" x1="772.93" y1="267.53" x2="772.93" y2="137.1" gradientUnits="userSpaceOnUse">
      <stop offset="0" stop-color="#b000d9"/>
      <stop offset="1" stop-color="#e05cff"/>
    </linearGradient>
    <linearGradient id="_ÂÁ_Ï_ÌÌ_È_ËÂÌÚ_9-5" data-name="¡ÂÁ˚ÏˇÌÌ˚È „‡‰ËÂÌÚ 9" x1="660" y1="851.73" x2="660" y2="673.82" xlink:href="#_ÂÁ_Ï_ÌÌ_È_ËÂÌÚ_9"/>
    <linearGradient id="_ÂÁ_Ï_ÌÌ_È_ËÂÌÚ_111-2" data-name="¡ÂÁ˚ÏˇÌÌ˚È „‡‰ËÂÌÚ 111" x1="768.7" y1="410.29" x2="768.7" y2="174.39" xlink:href="#_ÂÁ_Ï_ÌÌ_È_ËÂÌÚ_111"/>
    <radialGradient id="_ÂÁ_Ï_ÌÌ_È_ËÂÌÚ_136" data-name="¡ÂÁ˚ÏˇÌÌ˚È „‡‰ËÂÌÚ 136" cx="388.54" cy="347.55" fx="388.54" fy="347.55" r="98.25" gradientTransform="translate(-267.13 -25.05) scale(1.67 1.07)" gradientUnits="userSpaceOnUse">
      <stop offset="0" stop-color="#06feff"/>
      <stop offset=".17" stop-color="#04c4c4"/>
      <stop offset=".4" stop-color="#037f7f"/>
      <stop offset=".6" stop-color="#014848"/>
      <stop offset=".78" stop-color="#002121"/>
      <stop offset=".92" stop-color="#000808"/>
      <stop offset="1" stop-color="#000"/>
    </radialGradient>
  </defs>
  <g class="cls-37">
    <g id="Layer_1" data-name="Layer 1">
      <g>
        <circle class="cls-35" cx="540" cy="540" r="460.01" transform="translate(-223.68 540) rotate(-45)"/>
        <circle class="cls-7" cx="540" cy="540" r="452" transform="translate(-223.68 540) rotate(-45)"/>
        <circle class="cls-9" cx="540" cy="540" r="540" transform="translate(-223.68 540) rotate(-45)"/>
        <path class="cls-23" d="m211,330.9s4.75-41.08,7.87-63.65c0,0,28.08-39.21,72.81-71.46l59.58,3.1s-120.13,96.36-140.26,132Z"/>
        <path class="cls-17" d="m291.68,195.8s0,33.05-30.16,59.17c-30.16,26.12-43.28,16.95-43.28,16.95l-7.24,52.65,140.26-125.66-59.58-3.1Z"/>
        <path class="cls-14" d="m930.39,540.22c0,37.47-5.27,73.78-15.23,108.03-19.76,68.92-58.05,129.94-109.19,177.53-36.56,34.09-79.71,61.18-127.22,79.21-43.06,16.39-89.67,25.28-138.5,25.28-6.92,0-13.92-.16-20.75-.58h-.08c-10.21-.49-20.34-1.48-30.3-2.72-75.34-9.88-143.77-41.17-199.27-87.78-20.83-17.37-39.77-36.97-56.49-58.38-12.68-16.06-24.13-33.1-34.17-51.14-2.39-4.28-4.69-8.65-7-13.01,0-.16-.08-.25-.16-.41-2.39-4.69-4.61-9.39-6.75-14.16h-.08c-6.75-14.9-12.68-30.3-17.46-46.11-3.62-11.36-6.67-23.06-9.14-34.91-.08-.08-.08-.25-.08-.33-1.73-8.32-3.21-16.72-4.37-25.2-2.63-18.12-3.95-36.56-3.95-55.34,0-10.79.41-21.57,1.4-32.11.49-6.75,1.24-13.42,2.14-20.09,5.02-38.37,15.73-74.93,31.21-108.94,7.58-16.71,16.3-32.77,26.1-48.17,16.3-25.69,35.57-49.24,57.31-70.4,70.24-68.34,166.17-110.42,271.9-110.42,4.12,0,8.23.08,12.27.17,4.37.16,8.73.33,13.09.66,22.4,1.48,44.3,4.78,65.46,9.88,12.35,2.96,24.45,6.42,36.31,10.54,8.07,2.72,15.97,5.76,23.8,9.06,5.85,2.47,11.53,5.02,17.21,7.74.99.49,1.98.91,2.97,1.4,37.88,18.53,72.21,42.9,102.02,72.13,4.28,4.12,8.4,8.4,12.52,12.76,2.72,2.96,5.43,6.01,8.07,9.06,4.53,5.11,8.89,10.46,13.18,15.81,15.56,19.76,29.23,41.01,40.68,63.57,13.42,26.19,23.96,54.1,31.12,83.33,7.49,30.14,11.45,61.59,11.45,94.04Z"/>
        <path class="cls-13" d="m711.34,189.55c-1.29.14-2.57.27-3.86.54-4.4.81-7.85.41-12.18-.81-3.11-.88-5.35-2.16-8.66-2.71-4.74-.74-9.14-2.77-13.87-3.38-5.01-.68-9.34-2.64-14.07-4.33-3.72-1.35-5.68-.88-9.27,0-3.59.95-6.09-.54-9.27-1.89-3.59-1.56-7.17-1.83-10.96-2.57-9.88-2.03-19.69-5.21-29.5-7.71-6.09-1.56-11.71-1.56-17.93-1.62-4.87-.07-9.27,1.35-14.14,1.35-3.25,0-6.02-.54-9.27-1.02-3.32-.61-6.7.07-10.01-.41-4.94-.74-7.58-1.49-12.59.07-3.72,1.22-6.63,1.08-10.35,1.29-4.13.2-8.8,1.29-12.86,2.23-7.31,1.69-15.29,3.05-22.8,2.91-4.6,0-11.37-1.29-15.77.27-2.84,1.02-4.26,4.06-6.23,6.09-3.79,3.92-8.46,7.44-11.64,11.84-3.18,4.4-6.77,8.93-6.5,14.48.27,4.8,2.5,10.42,4.6,14.82,2.17,4.67,2.91,8.93-1.89,12.05-6.02,3.99-12.99,7.65-19.89,9.61-4.6,1.35-8.73,2.17-12.59-1.15-1.42-1.22-2.3-3.59-4.06-4.53-1.83-.95-3.72,0-5.68.61-4.87,1.42-9.61,3.05-14.55,3.86-3.05.47-5.68,2.1-8.66,2.64-3.59.68-6.16-1.96-9.88-1.08-5.21,1.22-10.42,3.38-15.83,3.65-3.86.2-8.73-1.49-11.98-3.45-1.89-1.08-2.37-2.16-4.53-1.56-1.76.41-4.4,2.57-5.35,3.92-1.29,1.83-1.76,4.2-3.04,6.09-1.35,2.1-2.64,4.13-3.86,6.36-2.23,4.33-4.87,8.39-7.71,12.25-2.03,2.71-3.45,6.36-5.68,8.87-1.15,1.35-3.65,2.3-5.14,3.32-4.06,2.84-8.32,5.41-12.25,8.46-7.58,5.96-14.75,12.52-22.47,18.27-5.89,4.4-14.14,6.97-20.84,9.74-4.2,1.69-8.53,2.91-12.72,4.67-1.35.54-3.86,1.15-5.01,2.17-1.49,1.29-2.3,3.65-3.65,5.41-3.65,4.47-7.51,8.93-10.29,14.07-1.69,2.98-2.71,6.02-3.79,9.27-1.49,4.4-3.86,8.46-5.35,12.86-3.05,9.2-3.65,18.81-7.04,27.95-1.96,5.35-4.8,10.22-7.24,15.09-4.2,8.26-4.8,18.07-6.02,27.2-.68,5.35-.41,11.5.54,16.71,1.02,5.62.74,11.44.68,17.19-.07,6.09-3.92,12.05-7.78,16.65-3.52,4.26-8.87,5.89-12.79,9.68-3.32,3.25-7.31,6.97-8.73,11.57-.61,2.03-.07,4.33-.41,6.5-.88,4.8-2.1,9.34-2.77,14.21-.74,6.02-.88,11.71-.88,17.8,0,3.05-.2,6.16-.07,9.2.14,2.91,1.22,5.62,1.42,8.53.13,2.03-.27,4.06,0,6.09.41,2.3,1.29,4.67,1.83,6.9,1.35,5.41,2.37,10.69,3.38,16.11.95,5.01,2.91,9.95,4.47,14.82,2.17,6.63,3.59,13.47,4.87,20.37,1.02,5.14.95,10.49,1.69,15.7.61,4.2,1.56,8.46,1.76,12.65.2,6.36-1.35,12.72-1.42,19.15-.07,10.83,4.26,21.65,6.77,32.07.74,2.91,1.49,5.89,2.3,8.8-26.8-52.92-41.89-112.73-41.89-176.07,0-77.01,22.33-148.8,60.83-209.3,16.38-25.71,35.59-49.26,57.31-70.37,70.31-68.34,166.19-110.43,271.96-110.43,8.53,0,16.92.27,25.31.81,52.04,3.32,101.3,16.85,145.76,38.64Z"/>
        <path class="cls-32" d="m565.14,723.53s36.42,53.77,84.62,97.39c48.2,43.61,55.28,72.92,55.28,72.92,0,0,91.1-38.1,156.11-128.32,65.01-90.22-296.01-41.99-296.01-41.99Z"/>
        <path class="cls-6" d="m308.94,844.88c-40.33-33.77-73.76-75.58-97.78-122.95-15.09-29.77-26.46-61.71-33.5-95.21-.07-.07-.07-.2-.07-.34-5.41-25.98-8.32-52.92-8.32-80.52,0-77.01,22.33-148.8,60.83-209.3,16.38-25.71,35.59-49.26,57.31-70.37,70.31-68.34,166.19-110.43,271.96-110.43,8.53,0,16.92.27,25.31.81,26.45,1.7,52.16,6.08,76.89,12.78-30.49-9.99-62.67-16.3-96-18.44-8.39-.54-16.78-.81-25.31-.81-105.76,0-201.65,42.09-271.96,110.43-21.72,21.11-40.94,44.66-57.31,70.37-38.5,60.5-60.83,132.29-60.83,209.3,0,27.61,2.91,54.54,8.32,80.52,0,.14,0,.27.07.34,7.04,33.5,18.41,65.43,33.5,95.21,24.02,47.37,57.45,89.19,97.78,122.95,42.74,35.86,93.21,62.63,148.55,77.58-47.87-15.62-91.67-40.23-129.45-71.92Z"/>
        <path class="cls-11" d="m631.07,160.78c-21.16-5.11-43.07-8.4-65.46-9.88-4.37-.33-8.73-.49-13.09-.66,9.3,5.19,17.95,14.33,20.09,23.71,3.54,16.06,8.73,30.96,11.69,47.02,2.97,15.81,2.39,35.41-4.77,49.74-4.53,9.06-9.88,16.8-17.05,24.21-5.1,5.19-9.47,8.07-13.09,14.49-3.62,6.26-7.08,12.35-11.2,18.28-6.09,8.89-12.52,18.36-19.52,26.52-2.47,2.96-5.19,5.02-7.41,8.48-2.8,4.28-4.12,8.32-7.16,11.69-7,7.82-17.87,12.19-27.5,15.73-12.52,4.69-23.14,9.96-34.91,16.22-16.55,8.73-30.14,19.93-49.49,20.42-6.42.16-13.09-.74-19.52-.16-7.99.66-15.4,4.53-23.3,6.01-6.92,1.32-13.83,2.72-20.75,3.87-11.36,1.73-20.75,5.6-31.7,8.23-14.24,3.54-29.15,2.63-43.48,4.61-12.93,1.73-24.13,3.29-36.97.16-19.84-4.94-30.47-14.33-26.27-35.41,2.8-13.83,1.81-24.37-5.27-35-15.48,34.01-26.19,70.57-31.21,108.94,9.39,3.95,20.09,6.01,28.41,6.83,28.9,2.97,60.03-9.96,86.46-19.84,13.51-5.11,27.26-12.52,41.83-14.16,15.31-1.65,28.82.25,44.13-3.54,52.78-13.01,104.82-31.45,151.92-59.37,19.52-11.53,28.16-28,41.75-44.71,11.94-14.57,25.36-26.68,39.61-38.87,14-11.94,26.35-23.8,34.67-40.51,8.81-17.62,16.3-36.97,20.34-56.32,4.28-20.42-.99-40.1-11.78-56.73Zm-2.63,53.03c-.82,4.36-1.4,9.06-2.72,13.17-3.38,10.46-9.63,21.24-19.43,26.76-4.53,2.55-10.54.99-13.18-3.54-1.4-2.47-1.4-5.6-1.89-8.32-.99-5.35-1.65-10.62-1.56-16.14.17-13.26-.33-26.02-1.56-39.28,1.4,7.49-.33-11.12,11.36-16.22,5.52-2.47,13.83-.25,18.03,4.03,5.27,5.35,6.51,14.41,8.48,21.41,1.73,6.26,3.62,11.53,2.47,18.12Z"/>
        <path class="cls-28" d="m571.95,836.57c-1.15.17-2.22.41-3.29.49l7.74.74c-.99-.25-2.64-.82-4.45-1.24Zm0,0c-1.15.17-2.22.41-3.29.49l7.74.74c-.99-.25-2.64-.82-4.45-1.24Zm346.99-390.39c-.16,10.21-3.05,20.34-3.29,30.63-.25,13.67-2.55,24.29-6.09,37.47-2.47,9.06-7.08,15.73-10.13,24.46-3.46,10.05-8.4,18.61-13.5,27.83-10.13,18.44-20.26,36.89-24.62,57.8-3.95,18.86-4.78,34.75-14.16,52.04-8.98,16.63-22.56,30.47-32.2,46.61-4.53,7.74-7.66,7.33-14.49,12.19-7.66,5.44-14.66,14-22.07,20.01-15.97,12.76-30.55,21.57-49.9,28.82-12.1,4.61-23.88,8.23-36.72,10.21-8.4,1.32-16.63,0-24.95,1.4-13.17,2.14-25.69,6.09-38.37,10.21-20.83,6.75-42.08,10.62-62.83,17.05-14.49,4.45-28.66,7.08-43.4,10.21-8.97,1.89-16.22,6.75-25.53,4.86-9.39-1.98-17.95-5.11-27.17-7.99-11.78-3.62-21.49-3.87-34.17-3.87-16.88,0-36.48,2.55-53.11-.66-18.77-3.62-37.47-8.65-56.24-12.52-11.36-2.39-20.01-7.08-30.38-11.94-9.72-4.53-20.17-5.85-30.3-9.06-10.7-3.38-21-8.4-31.95-11.12,16.72,21.41,35.65,41.01,56.49,58.38,55.5,46.61,123.93,77.9,199.27,87.78,9.96,1.23,20.09,2.22,30.3,2.72h.08c22.07-5.02,43.64-11.53,65.87-18.36,36.97-11.53,68.92-33.84,105.89-44.71,13.75-4.12,26.1-8.56,38.95-14.9,9.47-4.69,19.52-5.93,29.07-10.05,34.34-14.57,60.19-47.92,75.51-80.61,6.92-14.82,13.59-31.62,26.02-42.74,5.11-4.61,11.2-8.65,15.65-13.83,5.02-5.68,8.4-12.76,12.85-18.94,7.82-11.03,15.4-22.15,23.22-33.27.99-1.32,1.89-2.63,2.63-4.04,9.96-34.25,15.23-70.57,15.23-108.03,0-32.44-3.95-63.9-11.45-94.04Zm-357.86,393.19c1.4-.91,3.7-2.8,5.19-3.21,1.48-.49,3.71-.08,5.68.41,2.88-.41,5.76-.74,8.48.41,1.56.74,4.53,2.14,5.19,3.95.74,1.73-.25,2.8-1.4,3.95-1.48,1.48-2.63,1.48-4.69,1.89-4.28.82-8.48,1.56-12.93,1.15-2.63-.25-6.59-.41-8.23-2.88-1.56-2.39.74-4.37,2.72-5.68Zm25.61,50.89c-2.39,3.05-4.78,6.18-7.91,8.48-2.96,2.3-6.26,3.7-9.47,5.52-7.91,4.45-16.06,9.22-24.95,11.53-3.54.91-7.08.74-10.79.99-4.45.41-8.81.49-13.26.58-5.27.08-10.38,1.15-15.65,1.48-5.27.25-10.46.41-15.73.74-8.73.58-16.47-.9-24.7-3.87-7.41-2.72-15.07-6.18-21.74-10.62-4.69-3.13-8.73-7.57-12.76-11.53-3.79-3.54-6.84-7.33-8.98-12.11-.74-1.73-1.56-3.54-1.15-5.43.16-.91.58-1.65.58-1.89,1.48-1.15,2.97-2.22,4.36-2.8,2.8-1.24,5.93-1.81,8.89-2.14,7.16-.99,14.99.25,22.15.82,4.28.33,8.07.58,12.27-.08,5.6-.82,11.2-2.55,16.63-4.04,13.18-3.54,26.1-6.34,39.69-7.82,13.5-1.48,27.67-2.97,41.25-.66,5.11.82,11.28,2.3,15.73,5.27,3.29,2.22,5.93,5.76,7.74,9.3,3.13,6.01,1.81,13.09-2.22,18.28Zm103.34-33.84c-2.39,2.8-5.85,4.45-8.81,6.5-4.12,2.88-8.48,5.19-12.76,7.66-3.62,2.14-7.08,3.87-10.87,5.6-3.71,1.73-7.49,3.46-11.2,5.35-4.03,2.06-8.4,3.46-12.68,4.94-3.13,1.15-6.51,2.55-9.88,1.98-2.72-.58-5.76-1.65-7.74-3.71-2.97-3.13-2.47-6.51-1.48-7.91,0-2.88-.82-7,.08-9.8.58-1.65,2.55-4.12,3.46-5.76,3.46-6.26,8.4-10.79,13.59-15.73,4.53-4.37,8.89-7.66,14.99-9.8,6.83-2.31,14.66-2.88,21.74-3.79,7.74-.91,20.83-1.48,24.29,7.41,2.39,6.18,1.56,11.86-2.72,17.05Zm-113.63-18.61c-.99-.25-2.64-.82-4.45-1.24-1.15.17-2.22.41-3.29.49l7.74.74Z"/>
        <path class="cls-27" d="m887.82,362.85v1.56c-.49,10.79-4.86,18.2-8.73,28-3.13,7.91-6.75,14.99-10.79,22.48-6.84,12.52-10.05,24.29-15.07,37.71-7.82,21-11.77,42.49-24.04,61.59-11.03,17.05-13.59,37.96-22.56,56.16-10.13,20.34-25.61,34.91-42.24,49.74-7.41,6.67-13.59,14.66-20.26,21.9-7.08,7.66-12.6,17.54-21.08,23.63-18.36,13.34-38.45,24.87-56.41,38.95-10.79,8.4-18.44,19.6-30.3,26.6-11.86,7.08-24.7,12.02-36.48,19.19-10.62,6.5-21.08,13.5-32.61,18.2-13.18,5.27-24.13,3.7-37.63,4.36-14.99.66-30.47,4.61-44.55,9.47-11.69,4.12-21.49,8.32-33.43,4.12-7.9-2.8-15.07-7.99-23.38-9.72-19.35-3.95-41.42,0-61.1-.49-15.4-.41-32.36-3.95-47.43-7-14.82-2.88-26.93-13.26-41.25-17.46-17.7-5.19-38.37-.74-55.5-7.49-7-2.72-13.67-8.32-19.85-12.19-1.32-.82-2.63-1.65-3.95-2.47-2.39-4.28-4.69-8.65-7-13.01,4.2,1.73,8.4,3.62,12.68,5.68,22.4,10.71,50.31,9.06,74.44,13.26,27.17,4.78,54.35,11.86,81.77,14.99,11.12,1.24,22.31,1.15,33.35-.08,15.48-1.73,31.54-1.48,46.77-4.12,26.51-4.69,52.37-17.21,79.87-13.67,5.11.66,10.79,3.38,15.97,3.29,7.66-.25,12.93-6.92,19.1-10.79,10.87-6.83,22.32-5.52,31.87-14.49,9.39-8.81,19.76-14.49,31.21-20.26,29.81-15.15,53.93-39.77,77.32-63.16,19.6-19.52,38.62-40.18,52.04-64.56,13.18-23.96,10.54-52.45,20.42-77.32,7.16-17.79,13.17-34.5,24.78-50.15,5.6-7.49,12.43-13.92,18.36-21.08,6.34-7.66,10.21-15.97,15.07-24.54,5.35-9.55,12.1-18.36,16.39-28.49,4.03-9.72,3.7-18.28,3.54-28.41-.17-11.12,0-22.4,0-33.51,15.56,19.76,29.23,41.01,40.68,63.57Z"/>
        <path class="cls-30" d="m825.89,274.42c-4.12-4.37-8.23-8.65-12.52-12.76-29.81-29.23-64.15-53.61-102.02-72.13-.99-.49-1.98-.91-2.97-1.4-5.68-2.72-11.36-5.27-17.21-7.74-7.82-3.29-15.73-6.34-23.8-9.06,2.55,1.65,5.52,2.96,6.51,3.46,4.86,2.47,8.81,4.12,12.19,8.48,3.29,4.28,4.77,7.49,5.02,12.93.17,5.11.91,10.38,1.81,15.48.82,4.69,3.13,9.14,4.12,13.83.49,2.8.91,5.27,1.81,8.07,2.06,6.5,4.2,12.93,5.6,19.68,2.47,12.02-3.95,21.98-8.23,32.94-6.75,17.37-11.03,35-16.06,52.95-3.95,14.16-11.69,28.16-22.4,38.37-10.46,10.13-25.94,12.43-35.33,23.39-8.23,9.63-18.36,18.77-29.97,24.21-13.42,6.42-27.59,11.36-41.83,15.73-10.21,3.05-20.91,3.29-31.21,6.01-12.76,3.21-24.46,9.63-36.48,14.82-12.76,5.52-24.7,12.6-37.55,18.12-12.93,5.43-24.95,12.85-37.79,18.12-6.26,2.55-12.85,3.79-19.19,6.01-13.17,4.61-25.94,13.01-39.94,14.66-4.86.58-9.8,1.73-14.58,1.73-3.87.08-7.33.49-11.03,1.89-12.19,4.78-19.68,18.53-33.68,18.61-12.85,0-25.53-.49-38.29.99-6.18.74-12.35.33-18.53.41-1.81,0-4.2.41-6.01-.33-2.06-.82-4.36-2.8-6.42-3.95-4.61-2.55-9.06-5.85-13.17-8.98-8.07-6.26-18.77-2.8-28.08-4.69-2.8-.58-6.92-.25-9.39-1.65-5.76-3.46-13.01-10.54-17.7-14.49-.99,10.54-1.4,21.33-1.4,32.11,0,18.78,1.32,37.22,3.95,55.34,1.15,8.48,2.63,16.88,4.37,25.2,0,.08,0,.25.08.33,2.47,11.86,5.52,23.55,9.14,34.91,4.78,15.81,10.7,31.21,17.46,46.11h.08c10.62,1.73,21.57,3.13,32.28,1.56,15.23-2.22,30.38-4.61,45.87-4.03,14.49.66,28,5.6,42.16,7.99,15.89,2.63,32.44,4.78,48.58,5.85,14.74.91,29.4,2.14,44.05,3.79,11.03,1.32,22.07,3.46,33.1,4.2,28.65,1.98,56.65-5.52,84.81-8.48,14.08-1.48,28.08-5.02,41.91-7.99,8.48-1.81,16.72-4.03,24.21-8.65,9.88-6.18,16.14-15.65,24.95-23.14,9.72-8.32,19.84-16.39,29.97-24.13,8.65-6.59,16.8-13.75,25.85-19.6,6.92-4.53,13.83-8.81,20.34-13.92,12.76-10.05,22.89-21.66,33.43-33.84,14.74-17.13,20.83-40.93,26.76-62.17,5.35-19.52,9.06-39.03,19.76-56.57,5.27-8.56,9.22-18.44,11.69-28.16,1.56-6.09,2.14-12.93,4.94-18.69,4.45-9.39,13.18-16.14,18.53-25.03,4.2-7,8.89-13.51,11.86-21.25,5.76-15.23,10.13-30.05,12.6-46.28,1.81-11.94,5.68-22.89,9.39-34.34.58-1.89,1.15-3.79,1.65-5.76-2.63-3.05-5.35-6.09-8.07-9.06Zm-507.65,266.54c.82-2.06,15.4-7.74,17.62-8.4-.08.08-.25.17-.49.25l-9.55,4.12c10.54-3.54,29.56,7.16,20.34,19.27-2.72,3.54-9.8,5.27-14,5.93-4.2.74-6.83-.66-9.39-4.28-2.14-3.13-3.71-8.56-4.28-12.27-.25-1.32-.82-3.29-.25-4.61Zm-116.19,105.07c-11.36-3.13-18.94-7.33-25.94-16.88-4.53-6.18-8.48-12.35-9.72-19.93-.99-6.26-3.46-11.86-1.98-18.12,1.15-4.94,3.13-10.37,5.44-14.99,2.55-5.19,6.34-10.54,6.67-12.27,11.36-.99,21.98-1.4,33.35-1.48,12.68-.08,25.36,1.56,38.12,1.65,5.76.08,11.53.33,17.21-.91,5.52-1.07,10.87-2.55,16.47-3.46,9.72-1.65,18.77-2.8,27.91,2.06,6.92,3.7,10.13,11.36,13.34,18.28,1.81,3.95,2.88,6.75,2.88,11.2.08,5.35-.25,10.62-.91,15.97-.25,1.98-.49,4.03-.82,6.01-7.99,17.46-29.97,23.22-46.36,29.31-23.96,8.81-51.05,10.21-75.67,3.54Zm175.39,37.38c-5.11,12.85-26.6,17.46-38.95,17.95-6.09.25-13.42-.99-18.77-4.2-2.97-1.81-6.09-5.27-7.82-8.32-1.4-2.3-4.53-6.59-10.87-4.69,1.32-7.08,3.54-13.83,6.51-20.34,2.8-3.13,5.76-6.09,8.81-8.89,5.76-5.19,12.19-9.72,19.1-13.26,10.79-5.43,22.07-1.4,32.44,3.38,7,3.21,12.43,7.99,13.92,15.64,1.73,8.73-1.15,14.9-4.36,22.73Zm144.43-2.47c-3.95,9.47-9.47,11.61-18.2,16.06-10.21,5.19-22.64,9.06-34.17,9.14-5.93.08-11.44-2.72-16.8-4.86-3.54-1.4-7.41-2.3-10.21-4.94-7.74-7.08-8.98-17.46-4.2-15.32-2.96-6.34-4.86-12.85-5.6-19.68,1.32-1.07,2.14-2.47,2.55-4.2,4.12-7.74,11.78-14.16,19.35-18.44,13.5-7.74,30.71-8.65,45.12-2.63,6.34,2.63,10.38,5.85,15.15,10.7,2.22,2.31,5.35,4.45,7.08,7.25,4.28,7.16,2.96,19.68-.08,26.93Zm44.38-1.48c-2.22,1.81-6.51,5.35-9.39,4.78-2.39-.49-6.92-5.35-6.18-7.9l-1.56-1.56c3.46-5.35,6.92-10.79,10.29-16.3,5.27,2.31,9.96,1.98,13.17,7.74,2.96,5.35-2.39,10.05-6.34,13.26Zm110.42-258.97c-4.36,5.85-10.13,11.36-16.88,14.16-8.48,3.54-19.85,6.18-20.26-6.59-.33-7.49.91-12.93,4.28-19.84,4.86-9.8,9.47-12.27,18.86-17.13,3.46.41,7.08,1.24,9.72,2.14,5.27,1.73,10.29,6.42,11.03,12.02.82,5.85-3.38,10.87-6.75,15.23Zm103.01-55.5c-4.12,12.85-9.64,25.28-15.32,37.47-6.92,14.99-7.74,30.38-11.2,46.19-1.98,8.89-6.18,18.69-14.9,22.15-3.79,1.48-7.49,1.15-11.69,1.15-3.79,0-10.79,1.4-10.54,4.69-2.22-6.18-6.01-14.49-7.49-21.49-1.56-7.74-2.22-16.06-3.46-23.8-1.32-8.15-1.89-16.3-2.72-24.54-.66-7.66-2.22-15.73-2.14-23.47.33-25.53,14.41-57.31,38.37-69.09,7.33-3.54,14.57-5.19,22.64-3.87,9.39,1.4,14.74,3.95,18.94,12.93,5.68,12.35,3.46,28.98-.49,41.67Z"/>
        <path class="cls-33" d="m666.15,389.29c-1.23.66-2.39,1.23-3.46,1.81-2.14-.33-4.2-.41-5.93-.25l9.39-1.56Z"/>
        <path class="cls-25" d="m176.54,563.85c-.58.08-1.24.08-1.89.17,1.56-.99,2.14-.99,1.89-.17Z"/>
        <path class="cls-18" d="m615.06,157.29l68.48-26.98s108.96,42.34,177.6,135.04l4.28,59.21s-129.81-49.76-250.37-167.27Z"/>
        <path class="cls-22" d="m863.95,759.68s-57.39,62.26-100.76,76.15l-35.61,10.86s-162.43-58.44-171.34-160.11c-7.48-85.41,138.61-216.51,178.13-232.11,39.52-15.6,85.82-6.76,85.82-6.76l43.75,311.98Z"/>
        <path class="cls-21" d="m820.19,447.71c-34.26-10.88-182.33,57.32-222.08,210.31-8.07,31.04,67.04,148.98,156.75,177.82,29.77,9.57,166.29-109.7,172-190.51,5.7-80.81-55.78-181.46-106.66-197.62Z"/>
        <path class="cls-19" d="m607.66,675.91c21.13-173.25,178.66-229.66,212.93-218.78,24.75,7.86,61.13,44.2,81.95,80.02-21.49-44.23-53.6-80.32-82.34-89.44-34.26-10.88-182.33,57.32-222.08,210.31-2.8,10.79,4.45,32.08,18.86,56.46-7.88-16.64-10.32-30.32-9.31-38.57Z"/>
        <path class="cls-31" d="m318,861.54s35.31,12.94,61.05,5.92c0,0,9.89-83.51-21.58-136.93-31.47-53.42-84.8,27.3-84.8,27.3l-12.2,51.12s29.68,35.7,57.52,52.59Z"/>
        <path class="cls-2" d="m348.62,848.05l22.64-6.06s10.91-46.26-8.04-98.45c-21.52-59.25-100.39-103.53-112.09-104.48-11.7-.95-23.25,25.68-23.25,25.68l120.75,183.31Z"/>
        <path class="cls-24" d="m705.04,893.83l-37.6,48.91s-65.28,31.59-130.8,16.28l-47.53-32.03,215.93-33.16Z"/>
        <path class="cls-3" d="m210.94,701.4c3.93-17.97,19.77-47.84,33.96-50.75,14.2-2.91,81.26,60.77,96.79,101.74,15.52,40.97,7.69,86.41,6.93,95.67-.76,9.27-76.86-16.56-115.26-48.11-38.4-31.55-22.41-98.55-22.41-98.55Z"/>
        <path class="cls-1" d="m341.69,752.38c-15.52-40.97-82.59-104.65-96.79-101.74-5.47,1.12-11.18,6.27-16.36,13.17,3.18-2.9,6.42-4.94,9.58-5.59,14.2-2.91,82.52,47.77,97.76,88.84,18.72,50.45,8.43,86.86,6.59,102.76,3.69.24,6.01-.25,6.14-1.77.76-9.27,8.6-54.7-6.93-95.67Z"/>
        <path class="cls-5" d="m553.52,578.37c-16.85-7.88,2.26-81.79,18.84-97.87,16.58-16.08,59.7,21.5,65.42,52.23,5.71,30.73-45.67,63.69-84.26,45.64Z"/>
        <path class="cls-20" d="m570.38,572.74c-13.49-6.54,1.81-67.86,15.09-81.2,13.28-13.34,47.82,17.84,52.39,43.33,4.57,25.5-36.57,52.84-67.49,37.87Z"/>
        <path class="cls-4" d="m683.55,130.32s3.38,41.56,50.19,92.53c46.81,50.97,127.42,42.51,127.42,42.51l4.28,59.21s-171.42-75.77-250.37-167.27l68.48-26.98Z"/>
        <g>
          <path class="cls-26" d="m817.97,498.73c-1.94,1.62-6.19,4.65-2.82,7,.91.64,1.7.3,2.67.58.75.22.94.8,1.81.47,2.74-1.04,1.64-8.81-1.45-7.25l-.21-.81Z"/>
          <path class="cls-26" d="m979.63,429.11c-1.94,1.62-6.19,4.65-2.82,7,.91.63,1.7.3,2.67.58.75.22.94.8,1.81.47,2.74-1.04,1.64-8.81-1.45-7.25l-.21-.81Z"/>
          <path class="cls-26" d="m908.63,716.21c-1.94,1.62-6.19,4.65-2.82,7,.91.64,1.7.3,2.67.58.75.22.94.8,1.81.47,2.74-1.04,1.64-8.81-1.45-7.25l-.21-.81Z"/>
          <path class="cls-26" d="m832.1,526.96c1.24-.69,2.52-1.05,3.83-1.08.3,1.68,1.84,4.98-.56,6.29-2.01,1.1-1.4-2.5-2.36-3.34l-.91-1.87Z"/>
          <path class="cls-26" d="m575.47,544.26c2.57,1.01,5.12,2.08,7.65,3.19.82-.72,2.05-.59,3.02-1.22,1.24-.82,2.36-2.55,2.83-3.99.72-2.18-.39-3.96-1.39-5.63-.67-1.11-1.31-2.75-2.33-3.5-1.19-.89-3.51-.54-4.75.06-1.54.73-2.66,2.31-3.68,3.71-.96,1.32-2.08,3.51-2.13,5.17-.05,1.78,1.37,3.67,2.68,4.58l-1.89-2.37Z"/>
          <path class="cls-26" d="m211.79,738.72c2.57,1.01,5.12,2.08,7.65,3.19.82-.72,2.05-.59,3.02-1.22,1.24-.82,2.36-2.55,2.83-3.99.72-2.18-.39-3.96-1.39-5.63-.67-1.11-1.31-2.75-2.33-3.5-1.19-.89-3.51-.54-4.75.05-1.54.73-2.66,2.31-3.68,3.71-.96,1.32-2.08,3.51-2.13,5.17-.05,1.78,1.37,3.67,2.68,4.58l-1.89-2.37Z"/>
          <path class="cls-26" d="m920.76,840.18c2.57,1.01,5.12,2.08,7.65,3.19.82-.72,2.05-.59,3.02-1.22,1.24-.82,2.36-2.55,2.83-3.99.72-2.18-.39-3.96-1.39-5.63-.67-1.11-1.31-2.75-2.33-3.5-1.19-.89-3.51-.54-4.75.06-1.54.73-2.66,2.31-3.68,3.71-.96,1.32-2.08,3.51-2.13,5.17-.05,1.78,1.37,3.67,2.68,4.58l-1.89-2.37Z"/>
          <path class="cls-26" d="m869.77,769.76c2.57,1.01,5.12,2.08,7.65,3.19.82-.72,2.05-.59,3.02-1.23,1.24-.82,2.36-2.55,2.83-3.99.72-2.18-.39-3.96-1.39-5.63-.67-1.11-1.31-2.75-2.33-3.5-1.19-.89-3.51-.54-4.75.05-1.54.73-2.66,2.31-3.68,3.71-.96,1.32-2.08,3.51-2.13,5.17-.05,1.78,1.37,3.67,2.68,4.58l-1.89-2.37Z"/>
          <path class="cls-26" d="m162.14,278.28c6.52,2.57,12.97,5.27,19.38,8.09,2.07-1.83,5.2-1.48,7.64-3.1,3.13-2.08,5.96-6.47,7.17-10.11,1.83-5.52-.99-10.03-3.52-14.25-1.69-2.82-3.32-6.95-5.9-8.87-3.02-2.24-8.89-1.36-12.04.14-3.89,1.85-6.74,5.84-9.32,9.4-2.42,3.33-5.27,8.88-5.39,13.09-.13,4.52,3.48,9.3,6.78,11.6l-4.8-6Z"/>
          <path class="cls-26" d="m592.05,41.68c6.52,2.57,12.97,5.27,19.38,8.09,2.07-1.83,5.2-1.48,7.64-3.1,3.13-2.08,5.96-6.47,7.17-10.11,1.83-5.52-.99-10.03-3.52-14.25-1.69-2.82-3.32-6.95-5.9-8.87-3.02-2.24-8.89-1.36-12.04.14-3.89,1.85-6.74,5.84-9.32,9.4-2.42,3.33-5.27,8.88-5.39,13.09-.13,4.52,3.48,9.3,6.78,11.6l-4.8-6Z"/>
          <path class="cls-26" d="m649.18,608.93c-1.1.77-2,1.73-2.69,2.89,1.05,1.32,1.57,2.57,3.37,3.09.72.21,1.48.23,2.07-.34.75-.73.34-1.54.55-2.26.49-1.75.98-2.21-.02-3.81-.6-.96-1.01-1.35-2.06-1.35-.74,0-2.33.2-2.7,1.02l1.48.76Z"/>
          <path class="cls-26" d="m655.03,649.73c-.19.45-2.17,5.48.4,4.03,1.29-.73.83-2.71-.04-3.28l.13-.5-.49-.25Z"/>
          <path class="cls-26" d="m783.82,724.01c-1.72,2.25-1.94,3.16-2.72,5.5.73.68,2.18,1.06,3.13,1.02,1.51-.06,1.58-.55,1.62-1.99.03-1.17.52-2.08.24-3.2-.29-1.15-1.43-2.32-2.76-1.59l.49.25Z"/>
          <path class="cls-26" d="m675.24,613.86c.99.91,1.61,2.03,1.85,3.36-1.37.34-1.53-1-1.73-2.07-.32-1.7.47-1.18,1.26-2.54.15.03.3.06.45.09l-1.84,1.16Z"/>
          <path class="cls-26" d="m798.72,503.58c-1.1.77-1.99,1.73-2.68,2.88.65.81.34,2.26,1.85,2.15,1.06-.08,1.94-1.22,2.45-2.1.6-1.02.65-1.85.72-2.96.04-.56.03-2.97-1-1.39l-1.34,1.41Z"/>
          <path class="cls-26" d="m782.02,216.3c1.25-.32,2.84-1.01,4.13-.99.37,0,.85.27,1.25.3,1.32.12,1.37-.18,2.01.89.73,1.21,1.07,2.09.84,3.5-.76,4.84-7.62-2.45-5.23-4.24l-3.01.53Z"/>
          <path class="cls-26" d="m258.13,224.94c-2.17.67-5.47.91-5.74,3.42-.23,2.15,3.33,4.39,5.12,4.98,3.2,1.04,8.43,1.56,10.01-2.07.92-2.12.23-6.23-1.08-8.1-2.67-3.82-8.16-2.27-12.33-.64l4.02,2.42Z"/>
          <path class="cls-26" d="m813.88,729.34c-.98-7.47-2.33-14.84,4.31-18.77,3.61-2.13,10.24-2.88,13.65-.35,2.47,1.83,4.63,5.24,6.17,7.8,2.27,3.78,1.68,3.79.49,7.24-2.73,7.93-4.6,13.15-12.48,13.16-10.41.02-12.02-8.08-12.15-18.14v9.05Z"/>
          <path class="cls-26" d="m818.51,519.39c2.9-.79,5.39-2.3,7.47-4.54-2.08-1.29-6.65-3.98-7.47-.06v4.6Z"/>
          <path class="cls-26" d="m228.34,709.47c2.9-.79,5.39-2.3,7.47-4.54-2.08-1.29-6.65-3.98-7.47-.06v4.6Z"/>
          <path class="cls-26" d="m228.34,772.16c2.9-.79,5.39-2.3,7.47-4.54-2.08-1.29-6.65-3.98-7.47-.06v4.6Z"/>
          <path class="cls-26" d="m669.6,547.8c2.89-3.55,7.06-10.02,12.29-6.47,3.04,2.06,3.91,7.52,1,9.7-2.7,2.01-5.17,2.58-8.21,3.42-2.32.64-5.78-.9-5.08-4.34v-2.3Z"/>
          <path class="cls-26" d="m767.5,709.21c2.89-3.55,7.06-10.02,12.29-6.47,3.04,2.06,3.91,7.52,1,9.7-2.7,2.01-5.17,2.58-8.21,3.42-2.32.64-5.78-.9-5.08-4.34v-2.3Z"/>
          <path class="cls-26" d="m752.76,174.28c4.51.76,12.2,1.19,11.7,7.5-.29,3.66-4.61,7.11-7.94,5.65-3.08-1.35-4.8-3.22-7.03-5.45-1.7-1.7-2.07-5.48,1.27-6.56l2-1.13Z"/>
          <path class="cls-26" d="m736.72,751.05c2.89-3.55,7.06-10.02,12.29-6.47,3.04,2.06,3.91,7.52,1,9.69-2.7,2.01-5.17,2.58-8.21,3.42-2.32.64-5.78-.9-5.08-4.34v-2.3Z"/>
          <path class="cls-26" d="m603.27,542.44c-3.7,2.35-9.92,5.26-10.54,10.33-.38,3.06,1.03,4.86,3.79,6.19,2.35,1.13,5.89,1.23,8.25.04,3.38-1.71,7.3-4.53,8.82-8.13,1.1-2.6.92-4.38-.3-6.96-.66-1.38-1.96-3.04-3.45-3.56-4.72-1.64-7.56,3-11.06,5.09l4.49-2.99Z"/>
          <path class="cls-26" d="m615.24,528.97c2.02.71,3.72,1.84,5.1,3.37-2.01.68-4.16,2.27-6.23,1.54-2.67-.95-3.16-3.49-2.56-6.04.33-1.39,2.83-3.84,4.26-3.23.72.31.86,1.3,1.1,1.92.5,1.32.53,1.05-.18,2.43h-1.5Z"/>
          <path class="cls-26" d="m717.26,506.71c-9.77,8.57-18.97,18.81-24.15,31.07-2.64,6.24,2.05,6.55,7.72,5.45,10.99-2.15,22.04-5.18,32.89-7.97,6.43-1.65,15.65-5.04,20.11-10.5,3.42-4.19,4.84-11.4,4.09-16.66-1.06-7.36-6.29-10.23-12.98-12.08-15.27-4.23-36.96,12.26-42.63,26.33l14.95-15.65Z"/>
          <path class="cls-26" d="m662.8,562.32c3.17.09,6.12.85,8.85,2.3-.79.94-.53,2.21-.95,3.3-.62,1.63-2.16,3.28-3.62,4.2-2.43,1.54-6.47,2.1-9.17,1.08-8.19-3.11,4.37-12.82,7.14-9.39l-2.24-1.5Z"/>
          <path class="cls-26" d="m205.65,875.09c-1.1.77-2,1.73-2.69,2.89,1.05,1.32,1.57,2.57,3.37,3.09.72.21,1.49.23,2.07-.34.75-.73.34-1.54.55-2.27.49-1.75.98-2.21-.02-3.81-.6-.96-1.01-1.35-2.06-1.35-.74,0-2.33.2-2.7,1.02l1.48.76Z"/>
          <path class="cls-26" d="m211.5,915.89c-.19.45-2.17,5.48.4,4.03,1.29-.73.83-2.71-.04-3.28.04-.17.09-.33.13-.5l-.49-.25Z"/>
          <path class="cls-26" d="m231.7,880.02c.99.91,1.61,2.03,1.85,3.36-1.37.34-1.53-1-1.73-2.07-.32-1.7.47-1.18,1.26-2.54.15.03.3.06.45.1l-1.84,1.16Z"/>
          <path class="cls-26" d="m219.27,828.48c3.17.09,6.12.85,8.85,2.3-.79.94-.53,2.21-.95,3.3-.62,1.63-2.16,3.28-3.62,4.2-2.43,1.54-6.47,2.1-9.17,1.08-8.19-3.11,4.37-12.82,7.14-9.39l-2.24-1.5Z"/>
          <path class="cls-26" d="m736.71,181.52c2.78,1.94,5.77,3.41,7.89,6,2.43,2.99,4.82,5.69,6.72,9.06.95,1.69,3.25,5.4-.13,5.87-3.67.51-10.17-4.32-12.83-6.2-4.56-3.22-8.97-6.16-12.27-10.8-1.67-2.34-4.21-6.4-2.52-9.22,1.42-2.37,3.46-2.78,6.05-2.72,2.71.06,4.27.86,6.41,2.57.98.79,5.74,5.63,4.13,6.93l-3.43-1.5Z"/>
          <path class="cls-26" d="m772.19,492.62c-1.35.98-11.69,6.72-6.77,9.2,2.65,1.33,7.84.95,10.53-.19,2.39-1.02,4.81-2.59,3.31-5.34-3.03-5.55-10.64-2.35-14.56.07l7.48-3.74Z"/>
          <path class="cls-26" d="m846.61,154.2c-3.39,2.45-29.34,16.85-16.98,23.09,6.64,3.35,19.69,2.38,26.44-.48,6-2.55,12.08-6.5,8.31-13.39-7.61-13.94-26.7-5.9-36.55.18l18.78-9.39Z"/>
          <path class="cls-26" d="m232.08,743.47c1.09,6.06,2.33,12.69,7.61,16.7,5.47,4.16,11.65,2.47,17.01-.69,3.98-2.35,7.73-4.85,11.62-7.24,2.27-1.4,4.25-1.75,4.35-4.99.11-3.48-3.1-8.15-5.1-10.79-2.39-3.15-7.21-6.92-10.94-8.31-8.14-3.04-23.68-.02-23.49,11.06l-1.07,4.26Z"/>
          <path class="cls-26" d="m777.16,755.38c.76,4.25,1.64,8.91,5.34,11.72,3.84,2.92,8.18,1.74,11.94-.49,2.79-1.65,5.43-3.4,8.16-5.08,1.59-.98,2.99-1.23,3.06-3.5.08-2.44-2.18-5.72-3.58-7.57-1.68-2.21-5.06-4.86-7.68-5.84-5.72-2.13-16.62-.01-16.49,7.76l-.75,2.99Z"/>
        </g>
        <circle class="cls-8" cx="826.31" cy="720.29" r="73.84" transform="translate(-213.54 373.41) rotate(-22.63)"/>
        <circle class="cls-12" cx="727.47" cy="519.54" r="68.56"/>
        <path class="cls-15" d="m771.29,215.02c-8.68,11.95-30.43,10.94-48.59-2.25-18.16-13.19-25.85-33.57-17.17-45.51,8.68-11.95,30.43-10.94,48.59,2.25s25.85,33.57,17.17,45.51Z"/>
        <circle class="cls-10" cx="252.38" cy="741.91" r="73.84"/>
        <path class="cls-16" d="m684.7,137.1s17.9,76.06,68.27,104.73c63.72,36.27,108.19,23.53,108.19,23.53,0,0-56.95-2.01-109.6-37.92-43.97-29.99-66.85-90.34-66.85-90.34Z"/>
        <path class="cls-29" d="m565.14,723.53l33.82-49.71s43.37,123.37,155.9,162.02l-24.65,15.89s-114.71-32.64-165.07-128.2Z"/>
        <path class="cls-34" d="m629.19,174.39s162.25,163.32,279.01,235.9c0,0-11.3-44.63-42.77-85.72,0,0-98.03-32.23-236.25-150.18Z"/>
        <ellipse class="cls-36" cx="380.53" cy="346.37" rx="163.76" ry="105" transform="translate(-127.74 266.13) rotate(-33.34)"/>
      </g>
    </g>
  </g>
</svg>